<mxfile host="app.diagrams.net" modified="2024-04-30T19:19:40.489Z" agent="Mozilla/5.0 (Windows NT 10.0; Win64; x64) AppleWebKit/537.36 (KHTML, like Gecko) Chrome/124.0.0.0 Safari/537.36" etag="Ho-6AvvAyaIyi2YxNEe3" version="24.3.1" type="device">
  <diagram name="PÃ¡gina-1" id="nWTSdzdyS8zIZmOWsBOG">
    <mxGraphModel dx="1909" dy="1060" grid="1" gridSize="10" guides="1" tooltips="1" connect="1" arrows="1" fold="1" page="1" pageScale="1" pageWidth="2000" pageHeight="2000" math="0" shadow="0">
      <root>
        <mxCell id="0" />
        <mxCell id="1" parent="0" />
        <mxCell id="i8jER_SUOBb45JfwudOZ-2" value="" style="shape=table;startSize=0;container=1;collapsible=0;childLayout=tableLayout;" vertex="1" parent="1">
          <mxGeometry x="510" y="10" width="180" height="120" as="geometry" />
        </mxCell>
        <mxCell id="i8jER_SUOBb45JfwudOZ-3" value="" style="shape=tableRow;horizontal=0;startSize=0;swimlaneHead=0;swimlaneBody=0;strokeColor=inherit;top=0;left=0;bottom=0;right=0;collapsible=0;dropTarget=0;fillColor=none;points=[[0,0.5],[1,0.5]];portConstraint=eastwest;" vertex="1" parent="i8jER_SUOBb45JfwudOZ-2">
          <mxGeometry width="180" height="40" as="geometry" />
        </mxCell>
        <mxCell id="i8jER_SUOBb45JfwudOZ-4" value="&lt;font color=&quot;#0000cc&quot;&gt;3&lt;/font&gt;" style="shape=partialRectangle;html=1;whiteSpace=wrap;connectable=0;strokeColor=inherit;overflow=hidden;fillColor=none;top=0;left=0;bottom=0;right=0;pointerEvents=1;fontSize=20;" vertex="1" parent="i8jER_SUOBb45JfwudOZ-3">
          <mxGeometry width="60" height="40" as="geometry">
            <mxRectangle width="60" height="40" as="alternateBounds" />
          </mxGeometry>
        </mxCell>
        <mxCell id="i8jER_SUOBb45JfwudOZ-5" value="" style="shape=partialRectangle;html=1;whiteSpace=wrap;connectable=0;strokeColor=inherit;overflow=hidden;fillColor=none;top=0;left=0;bottom=0;right=0;pointerEvents=1;fontSize=20;" vertex="1" parent="i8jER_SUOBb45JfwudOZ-3">
          <mxGeometry x="60" width="60" height="40" as="geometry">
            <mxRectangle width="60" height="40" as="alternateBounds" />
          </mxGeometry>
        </mxCell>
        <mxCell id="i8jER_SUOBb45JfwudOZ-6" value="5" style="shape=partialRectangle;html=1;whiteSpace=wrap;connectable=0;strokeColor=inherit;overflow=hidden;fillColor=none;top=0;left=0;bottom=0;right=0;pointerEvents=1;fontSize=20;fontColor=#43A35A;" vertex="1" parent="i8jER_SUOBb45JfwudOZ-3">
          <mxGeometry x="120" width="60" height="40" as="geometry">
            <mxRectangle width="60" height="40" as="alternateBounds" />
          </mxGeometry>
        </mxCell>
        <mxCell id="i8jER_SUOBb45JfwudOZ-7" value="" style="shape=tableRow;horizontal=0;startSize=0;swimlaneHead=0;swimlaneBody=0;strokeColor=inherit;top=0;left=0;bottom=0;right=0;collapsible=0;dropTarget=0;fillColor=none;points=[[0,0.5],[1,0.5]];portConstraint=eastwest;" vertex="1" parent="i8jER_SUOBb45JfwudOZ-2">
          <mxGeometry y="40" width="180" height="40" as="geometry" />
        </mxCell>
        <mxCell id="i8jER_SUOBb45JfwudOZ-8" value="" style="shape=partialRectangle;html=1;whiteSpace=wrap;connectable=0;strokeColor=inherit;overflow=hidden;fillColor=none;top=0;left=0;bottom=0;right=0;pointerEvents=1;fontSize=20;" vertex="1" parent="i8jER_SUOBb45JfwudOZ-7">
          <mxGeometry width="60" height="40" as="geometry">
            <mxRectangle width="60" height="40" as="alternateBounds" />
          </mxGeometry>
        </mxCell>
        <mxCell id="i8jER_SUOBb45JfwudOZ-9" value="B" style="shape=partialRectangle;html=1;whiteSpace=wrap;connectable=0;strokeColor=inherit;overflow=hidden;fillColor=none;top=0;left=0;bottom=0;right=0;pointerEvents=1;fontSize=20;" vertex="1" parent="i8jER_SUOBb45JfwudOZ-7">
          <mxGeometry x="60" width="60" height="40" as="geometry">
            <mxRectangle width="60" height="40" as="alternateBounds" />
          </mxGeometry>
        </mxCell>
        <mxCell id="i8jER_SUOBb45JfwudOZ-10" value="" style="shape=partialRectangle;html=1;whiteSpace=wrap;connectable=0;strokeColor=inherit;overflow=hidden;fillColor=none;top=0;left=0;bottom=0;right=0;pointerEvents=1;fontSize=20;" vertex="1" parent="i8jER_SUOBb45JfwudOZ-7">
          <mxGeometry x="120" width="60" height="40" as="geometry">
            <mxRectangle width="60" height="40" as="alternateBounds" />
          </mxGeometry>
        </mxCell>
        <mxCell id="i8jER_SUOBb45JfwudOZ-11" value="" style="shape=tableRow;horizontal=0;startSize=0;swimlaneHead=0;swimlaneBody=0;strokeColor=inherit;top=0;left=0;bottom=0;right=0;collapsible=0;dropTarget=0;fillColor=none;points=[[0,0.5],[1,0.5]];portConstraint=eastwest;" vertex="1" parent="i8jER_SUOBb45JfwudOZ-2">
          <mxGeometry y="80" width="180" height="40" as="geometry" />
        </mxCell>
        <mxCell id="i8jER_SUOBb45JfwudOZ-12" value="&lt;font color=&quot;#ea6b66&quot;&gt;3&lt;/font&gt;" style="shape=partialRectangle;html=1;whiteSpace=wrap;connectable=0;strokeColor=inherit;overflow=hidden;fillColor=none;top=0;left=0;bottom=0;right=0;pointerEvents=1;fontSize=20;" vertex="1" parent="i8jER_SUOBb45JfwudOZ-11">
          <mxGeometry width="60" height="40" as="geometry">
            <mxRectangle width="60" height="40" as="alternateBounds" />
          </mxGeometry>
        </mxCell>
        <mxCell id="i8jER_SUOBb45JfwudOZ-13" value="2" style="shape=partialRectangle;html=1;whiteSpace=wrap;connectable=0;strokeColor=inherit;overflow=hidden;fillColor=none;top=0;left=0;bottom=0;right=0;pointerEvents=1;fontSize=20;" vertex="1" parent="i8jER_SUOBb45JfwudOZ-11">
          <mxGeometry x="60" width="60" height="40" as="geometry">
            <mxRectangle width="60" height="40" as="alternateBounds" />
          </mxGeometry>
        </mxCell>
        <mxCell id="i8jER_SUOBb45JfwudOZ-14" value="5" style="shape=partialRectangle;html=1;whiteSpace=wrap;connectable=0;strokeColor=inherit;overflow=hidden;fillColor=none;top=0;left=0;bottom=0;right=0;pointerEvents=1;fontSize=20;" vertex="1" parent="i8jER_SUOBb45JfwudOZ-11">
          <mxGeometry x="120" width="60" height="40" as="geometry">
            <mxRectangle width="60" height="40" as="alternateBounds" />
          </mxGeometry>
        </mxCell>
        <mxCell id="i8jER_SUOBb45JfwudOZ-85" style="edgeStyle=orthogonalEdgeStyle;rounded=0;orthogonalLoop=1;jettySize=auto;html=1;entryX=0;entryY=0.5;entryDx=0;entryDy=0;" edge="1" parent="1" source="i8jER_SUOBb45JfwudOZ-31" target="i8jER_SUOBb45JfwudOZ-7">
          <mxGeometry relative="1" as="geometry" />
        </mxCell>
        <mxCell id="i8jER_SUOBb45JfwudOZ-31" value="" style="shape=table;startSize=0;container=1;collapsible=0;childLayout=tableLayout;" vertex="1" parent="1">
          <mxGeometry x="260" y="140" width="180" height="120" as="geometry" />
        </mxCell>
        <mxCell id="i8jER_SUOBb45JfwudOZ-32" value="" style="shape=tableRow;horizontal=0;startSize=0;swimlaneHead=0;swimlaneBody=0;strokeColor=inherit;top=0;left=0;bottom=0;right=0;collapsible=0;dropTarget=0;fillColor=none;points=[[0,0.5],[1,0.5]];portConstraint=eastwest;" vertex="1" parent="i8jER_SUOBb45JfwudOZ-31">
          <mxGeometry width="180" height="40" as="geometry" />
        </mxCell>
        <mxCell id="i8jER_SUOBb45JfwudOZ-33" value="0" style="shape=partialRectangle;html=1;whiteSpace=wrap;connectable=0;strokeColor=inherit;overflow=hidden;fillColor=none;top=0;left=0;bottom=0;right=0;pointerEvents=1;fontSize=20;" vertex="1" parent="i8jER_SUOBb45JfwudOZ-32">
          <mxGeometry width="60" height="40" as="geometry">
            <mxRectangle width="60" height="40" as="alternateBounds" />
          </mxGeometry>
        </mxCell>
        <mxCell id="i8jER_SUOBb45JfwudOZ-34" value="" style="shape=partialRectangle;html=1;whiteSpace=wrap;connectable=0;strokeColor=inherit;overflow=hidden;fillColor=none;top=0;left=0;bottom=0;right=0;pointerEvents=1;fontSize=20;" vertex="1" parent="i8jER_SUOBb45JfwudOZ-32">
          <mxGeometry x="60" width="60" height="40" as="geometry">
            <mxRectangle width="60" height="40" as="alternateBounds" />
          </mxGeometry>
        </mxCell>
        <mxCell id="i8jER_SUOBb45JfwudOZ-35" value="3" style="shape=partialRectangle;html=1;whiteSpace=wrap;connectable=0;strokeColor=inherit;overflow=hidden;fillColor=none;top=0;left=0;bottom=0;right=0;pointerEvents=1;fontSize=20;fontColor=#0000CC;" vertex="1" parent="i8jER_SUOBb45JfwudOZ-32">
          <mxGeometry x="120" width="60" height="40" as="geometry">
            <mxRectangle width="60" height="40" as="alternateBounds" />
          </mxGeometry>
        </mxCell>
        <mxCell id="i8jER_SUOBb45JfwudOZ-36" value="" style="shape=tableRow;horizontal=0;startSize=0;swimlaneHead=0;swimlaneBody=0;strokeColor=inherit;top=0;left=0;bottom=0;right=0;collapsible=0;dropTarget=0;fillColor=none;points=[[0,0.5],[1,0.5]];portConstraint=eastwest;" vertex="1" parent="i8jER_SUOBb45JfwudOZ-31">
          <mxGeometry y="40" width="180" height="40" as="geometry" />
        </mxCell>
        <mxCell id="i8jER_SUOBb45JfwudOZ-37" value="" style="shape=partialRectangle;html=1;whiteSpace=wrap;connectable=0;strokeColor=inherit;overflow=hidden;fillColor=none;top=0;left=0;bottom=0;right=0;pointerEvents=1;fontSize=20;" vertex="1" parent="i8jER_SUOBb45JfwudOZ-36">
          <mxGeometry width="60" height="40" as="geometry">
            <mxRectangle width="60" height="40" as="alternateBounds" />
          </mxGeometry>
        </mxCell>
        <mxCell id="i8jER_SUOBb45JfwudOZ-38" value="A" style="shape=partialRectangle;html=1;whiteSpace=wrap;connectable=0;strokeColor=inherit;overflow=hidden;fillColor=none;top=0;left=0;bottom=0;right=0;pointerEvents=1;fontSize=20;" vertex="1" parent="i8jER_SUOBb45JfwudOZ-36">
          <mxGeometry x="60" width="60" height="40" as="geometry">
            <mxRectangle width="60" height="40" as="alternateBounds" />
          </mxGeometry>
        </mxCell>
        <mxCell id="i8jER_SUOBb45JfwudOZ-39" value="" style="shape=partialRectangle;html=1;whiteSpace=wrap;connectable=0;strokeColor=inherit;overflow=hidden;fillColor=none;top=0;left=0;bottom=0;right=0;pointerEvents=1;fontSize=20;" vertex="1" parent="i8jER_SUOBb45JfwudOZ-36">
          <mxGeometry x="120" width="60" height="40" as="geometry">
            <mxRectangle width="60" height="40" as="alternateBounds" />
          </mxGeometry>
        </mxCell>
        <mxCell id="i8jER_SUOBb45JfwudOZ-40" value="" style="shape=tableRow;horizontal=0;startSize=0;swimlaneHead=0;swimlaneBody=0;strokeColor=inherit;top=0;left=0;bottom=0;right=0;collapsible=0;dropTarget=0;fillColor=none;points=[[0,0.5],[1,0.5]];portConstraint=eastwest;" vertex="1" parent="i8jER_SUOBb45JfwudOZ-31">
          <mxGeometry y="80" width="180" height="40" as="geometry" />
        </mxCell>
        <mxCell id="i8jER_SUOBb45JfwudOZ-41" value="0" style="shape=partialRectangle;html=1;whiteSpace=wrap;connectable=0;strokeColor=inherit;overflow=hidden;fillColor=none;top=0;left=0;bottom=0;right=0;pointerEvents=1;fontSize=20;" vertex="1" parent="i8jER_SUOBb45JfwudOZ-40">
          <mxGeometry width="60" height="40" as="geometry">
            <mxRectangle width="60" height="40" as="alternateBounds" />
          </mxGeometry>
        </mxCell>
        <mxCell id="i8jER_SUOBb45JfwudOZ-42" value="3" style="shape=partialRectangle;html=1;whiteSpace=wrap;connectable=0;strokeColor=inherit;overflow=hidden;fillColor=none;top=0;left=0;bottom=0;right=0;pointerEvents=1;fontSize=20;" vertex="1" parent="i8jER_SUOBb45JfwudOZ-40">
          <mxGeometry x="60" width="60" height="40" as="geometry">
            <mxRectangle width="60" height="40" as="alternateBounds" />
          </mxGeometry>
        </mxCell>
        <mxCell id="i8jER_SUOBb45JfwudOZ-43" value="3" style="shape=partialRectangle;html=1;whiteSpace=wrap;connectable=0;strokeColor=inherit;overflow=hidden;fillColor=none;top=0;left=0;bottom=0;right=0;pointerEvents=1;fontSize=20;fontColor=#FF5B42;" vertex="1" parent="i8jER_SUOBb45JfwudOZ-40">
          <mxGeometry x="120" width="60" height="40" as="geometry">
            <mxRectangle width="60" height="40" as="alternateBounds" />
          </mxGeometry>
        </mxCell>
        <mxCell id="i8jER_SUOBb45JfwudOZ-44" value="" style="shape=table;startSize=0;container=1;collapsible=0;childLayout=tableLayout;" vertex="1" parent="1">
          <mxGeometry x="510" y="250" width="180" height="120" as="geometry" />
        </mxCell>
        <mxCell id="i8jER_SUOBb45JfwudOZ-45" value="" style="shape=tableRow;horizontal=0;startSize=0;swimlaneHead=0;swimlaneBody=0;strokeColor=inherit;top=0;left=0;bottom=0;right=0;collapsible=0;dropTarget=0;fillColor=none;points=[[0,0.5],[1,0.5]];portConstraint=eastwest;" vertex="1" parent="i8jER_SUOBb45JfwudOZ-44">
          <mxGeometry width="180" height="40" as="geometry" />
        </mxCell>
        <mxCell id="i8jER_SUOBb45JfwudOZ-46" value="3" style="shape=partialRectangle;html=1;whiteSpace=wrap;connectable=0;strokeColor=inherit;overflow=hidden;fillColor=none;top=0;left=0;bottom=0;right=0;pointerEvents=1;fontSize=20;fontColor=#0000CC;" vertex="1" parent="i8jER_SUOBb45JfwudOZ-45">
          <mxGeometry width="60" height="40" as="geometry">
            <mxRectangle width="60" height="40" as="alternateBounds" />
          </mxGeometry>
        </mxCell>
        <mxCell id="i8jER_SUOBb45JfwudOZ-47" value="" style="shape=partialRectangle;html=1;whiteSpace=wrap;connectable=0;strokeColor=inherit;overflow=hidden;fillColor=none;top=0;left=0;bottom=0;right=0;pointerEvents=1;fontSize=20;" vertex="1" parent="i8jER_SUOBb45JfwudOZ-45">
          <mxGeometry x="60" width="60" height="40" as="geometry">
            <mxRectangle width="60" height="40" as="alternateBounds" />
          </mxGeometry>
        </mxCell>
        <mxCell id="i8jER_SUOBb45JfwudOZ-48" value="4" style="shape=partialRectangle;html=1;whiteSpace=wrap;connectable=0;strokeColor=inherit;overflow=hidden;fillColor=none;top=0;left=0;bottom=0;right=0;pointerEvents=1;fontSize=20;fontColor=#67AB9F;" vertex="1" parent="i8jER_SUOBb45JfwudOZ-45">
          <mxGeometry x="120" width="60" height="40" as="geometry">
            <mxRectangle width="60" height="40" as="alternateBounds" />
          </mxGeometry>
        </mxCell>
        <mxCell id="i8jER_SUOBb45JfwudOZ-49" value="" style="shape=tableRow;horizontal=0;startSize=0;swimlaneHead=0;swimlaneBody=0;strokeColor=inherit;top=0;left=0;bottom=0;right=0;collapsible=0;dropTarget=0;fillColor=none;points=[[0,0.5],[1,0.5]];portConstraint=eastwest;" vertex="1" parent="i8jER_SUOBb45JfwudOZ-44">
          <mxGeometry y="40" width="180" height="40" as="geometry" />
        </mxCell>
        <mxCell id="i8jER_SUOBb45JfwudOZ-50" value="" style="shape=partialRectangle;html=1;whiteSpace=wrap;connectable=0;strokeColor=inherit;overflow=hidden;fillColor=none;top=0;left=0;bottom=0;right=0;pointerEvents=1;fontSize=20;" vertex="1" parent="i8jER_SUOBb45JfwudOZ-49">
          <mxGeometry width="60" height="40" as="geometry">
            <mxRectangle width="60" height="40" as="alternateBounds" />
          </mxGeometry>
        </mxCell>
        <mxCell id="i8jER_SUOBb45JfwudOZ-51" value="C" style="shape=partialRectangle;html=1;whiteSpace=wrap;connectable=0;strokeColor=inherit;overflow=hidden;fillColor=none;top=0;left=0;bottom=0;right=0;pointerEvents=1;fontSize=20;" vertex="1" parent="i8jER_SUOBb45JfwudOZ-49">
          <mxGeometry x="60" width="60" height="40" as="geometry">
            <mxRectangle width="60" height="40" as="alternateBounds" />
          </mxGeometry>
        </mxCell>
        <mxCell id="i8jER_SUOBb45JfwudOZ-52" value="" style="shape=partialRectangle;html=1;whiteSpace=wrap;connectable=0;strokeColor=inherit;overflow=hidden;fillColor=none;top=0;left=0;bottom=0;right=0;pointerEvents=1;fontSize=20;" vertex="1" parent="i8jER_SUOBb45JfwudOZ-49">
          <mxGeometry x="120" width="60" height="40" as="geometry">
            <mxRectangle width="60" height="40" as="alternateBounds" />
          </mxGeometry>
        </mxCell>
        <mxCell id="i8jER_SUOBb45JfwudOZ-53" value="" style="shape=tableRow;horizontal=0;startSize=0;swimlaneHead=0;swimlaneBody=0;strokeColor=inherit;top=0;left=0;bottom=0;right=0;collapsible=0;dropTarget=0;fillColor=none;points=[[0,0.5],[1,0.5]];portConstraint=eastwest;" vertex="1" parent="i8jER_SUOBb45JfwudOZ-44">
          <mxGeometry y="80" width="180" height="40" as="geometry" />
        </mxCell>
        <mxCell id="i8jER_SUOBb45JfwudOZ-54" value="8" style="shape=partialRectangle;html=1;whiteSpace=wrap;connectable=0;strokeColor=inherit;overflow=hidden;fillColor=none;top=0;left=0;bottom=0;right=0;pointerEvents=1;fontSize=20;fontColor=#FFB570;" vertex="1" parent="i8jER_SUOBb45JfwudOZ-53">
          <mxGeometry width="60" height="40" as="geometry">
            <mxRectangle width="60" height="40" as="alternateBounds" />
          </mxGeometry>
        </mxCell>
        <mxCell id="i8jER_SUOBb45JfwudOZ-55" value="1" style="shape=partialRectangle;html=1;whiteSpace=wrap;connectable=0;strokeColor=inherit;overflow=hidden;fillColor=none;top=0;left=0;bottom=0;right=0;pointerEvents=1;fontSize=20;" vertex="1" parent="i8jER_SUOBb45JfwudOZ-53">
          <mxGeometry x="60" width="60" height="40" as="geometry">
            <mxRectangle width="60" height="40" as="alternateBounds" />
          </mxGeometry>
        </mxCell>
        <mxCell id="i8jER_SUOBb45JfwudOZ-56" value="9" style="shape=partialRectangle;html=1;whiteSpace=wrap;connectable=0;strokeColor=inherit;overflow=hidden;fillColor=none;top=0;left=0;bottom=0;right=0;pointerEvents=1;fontSize=20;" vertex="1" parent="i8jER_SUOBb45JfwudOZ-53">
          <mxGeometry x="120" width="60" height="40" as="geometry">
            <mxRectangle width="60" height="40" as="alternateBounds" />
          </mxGeometry>
        </mxCell>
        <mxCell id="i8jER_SUOBb45JfwudOZ-57" value="" style="shape=table;startSize=0;container=1;collapsible=0;childLayout=tableLayout;" vertex="1" parent="1">
          <mxGeometry x="800" y="10" width="180" height="120" as="geometry" />
        </mxCell>
        <mxCell id="i8jER_SUOBb45JfwudOZ-58" value="" style="shape=tableRow;horizontal=0;startSize=0;swimlaneHead=0;swimlaneBody=0;strokeColor=inherit;top=0;left=0;bottom=0;right=0;collapsible=0;dropTarget=0;fillColor=none;points=[[0,0.5],[1,0.5]];portConstraint=eastwest;" vertex="1" parent="i8jER_SUOBb45JfwudOZ-57">
          <mxGeometry width="180" height="40" as="geometry" />
        </mxCell>
        <mxCell id="i8jER_SUOBb45JfwudOZ-59" value="&lt;font color=&quot;#00cc00&quot;&gt;5&lt;/font&gt;" style="shape=partialRectangle;html=1;whiteSpace=wrap;connectable=0;strokeColor=inherit;overflow=hidden;fillColor=none;top=0;left=0;bottom=0;right=0;pointerEvents=1;fontSize=20;" vertex="1" parent="i8jER_SUOBb45JfwudOZ-58">
          <mxGeometry width="60" height="40" as="geometry">
            <mxRectangle width="60" height="40" as="alternateBounds" />
          </mxGeometry>
        </mxCell>
        <mxCell id="i8jER_SUOBb45JfwudOZ-60" value="" style="shape=partialRectangle;html=1;whiteSpace=wrap;connectable=0;strokeColor=inherit;overflow=hidden;fillColor=none;top=0;left=0;bottom=0;right=0;pointerEvents=1;fontSize=20;" vertex="1" parent="i8jER_SUOBb45JfwudOZ-58">
          <mxGeometry x="60" width="60" height="40" as="geometry">
            <mxRectangle width="60" height="40" as="alternateBounds" />
          </mxGeometry>
        </mxCell>
        <mxCell id="i8jER_SUOBb45JfwudOZ-61" value="9" style="shape=partialRectangle;html=1;whiteSpace=wrap;connectable=0;strokeColor=inherit;overflow=hidden;fillColor=none;top=0;left=0;bottom=0;right=0;pointerEvents=1;fontSize=20;fontColor=#FF5B42;" vertex="1" parent="i8jER_SUOBb45JfwudOZ-58">
          <mxGeometry x="120" width="60" height="40" as="geometry">
            <mxRectangle width="60" height="40" as="alternateBounds" />
          </mxGeometry>
        </mxCell>
        <mxCell id="i8jER_SUOBb45JfwudOZ-62" value="" style="shape=tableRow;horizontal=0;startSize=0;swimlaneHead=0;swimlaneBody=0;strokeColor=inherit;top=0;left=0;bottom=0;right=0;collapsible=0;dropTarget=0;fillColor=none;points=[[0,0.5],[1,0.5]];portConstraint=eastwest;" vertex="1" parent="i8jER_SUOBb45JfwudOZ-57">
          <mxGeometry y="40" width="180" height="40" as="geometry" />
        </mxCell>
        <mxCell id="i8jER_SUOBb45JfwudOZ-63" value="" style="shape=partialRectangle;html=1;whiteSpace=wrap;connectable=0;strokeColor=inherit;overflow=hidden;fillColor=none;top=0;left=0;bottom=0;right=0;pointerEvents=1;fontSize=20;" vertex="1" parent="i8jER_SUOBb45JfwudOZ-62">
          <mxGeometry width="60" height="40" as="geometry">
            <mxRectangle width="60" height="40" as="alternateBounds" />
          </mxGeometry>
        </mxCell>
        <mxCell id="i8jER_SUOBb45JfwudOZ-64" value="D" style="shape=partialRectangle;html=1;whiteSpace=wrap;connectable=0;strokeColor=inherit;overflow=hidden;fillColor=none;top=0;left=0;bottom=0;right=0;pointerEvents=1;fontSize=20;" vertex="1" parent="i8jER_SUOBb45JfwudOZ-62">
          <mxGeometry x="60" width="60" height="40" as="geometry">
            <mxRectangle width="60" height="40" as="alternateBounds" />
          </mxGeometry>
        </mxCell>
        <mxCell id="i8jER_SUOBb45JfwudOZ-65" value="" style="shape=partialRectangle;html=1;whiteSpace=wrap;connectable=0;strokeColor=inherit;overflow=hidden;fillColor=none;top=0;left=0;bottom=0;right=0;pointerEvents=1;fontSize=20;" vertex="1" parent="i8jER_SUOBb45JfwudOZ-62">
          <mxGeometry x="120" width="60" height="40" as="geometry">
            <mxRectangle width="60" height="40" as="alternateBounds" />
          </mxGeometry>
        </mxCell>
        <mxCell id="i8jER_SUOBb45JfwudOZ-66" value="" style="shape=tableRow;horizontal=0;startSize=0;swimlaneHead=0;swimlaneBody=0;strokeColor=inherit;top=0;left=0;bottom=0;right=0;collapsible=0;dropTarget=0;fillColor=none;points=[[0,0.5],[1,0.5]];portConstraint=eastwest;" vertex="1" parent="i8jER_SUOBb45JfwudOZ-57">
          <mxGeometry y="80" width="180" height="40" as="geometry" />
        </mxCell>
        <mxCell id="i8jER_SUOBb45JfwudOZ-67" value="5" style="shape=partialRectangle;html=1;whiteSpace=wrap;connectable=0;strokeColor=inherit;overflow=hidden;fillColor=none;top=0;left=0;bottom=0;right=0;pointerEvents=1;fontSize=20;" vertex="1" parent="i8jER_SUOBb45JfwudOZ-66">
          <mxGeometry width="60" height="40" as="geometry">
            <mxRectangle width="60" height="40" as="alternateBounds" />
          </mxGeometry>
        </mxCell>
        <mxCell id="i8jER_SUOBb45JfwudOZ-68" value="4" style="shape=partialRectangle;html=1;whiteSpace=wrap;connectable=0;strokeColor=inherit;overflow=hidden;fillColor=none;top=0;left=0;bottom=0;right=0;pointerEvents=1;fontSize=20;" vertex="1" parent="i8jER_SUOBb45JfwudOZ-66">
          <mxGeometry x="60" width="60" height="40" as="geometry">
            <mxRectangle width="60" height="40" as="alternateBounds" />
          </mxGeometry>
        </mxCell>
        <mxCell id="i8jER_SUOBb45JfwudOZ-69" value="9" style="shape=partialRectangle;html=1;whiteSpace=wrap;connectable=0;strokeColor=inherit;overflow=hidden;fillColor=none;top=0;left=0;bottom=0;right=0;pointerEvents=1;fontSize=20;" vertex="1" parent="i8jER_SUOBb45JfwudOZ-66">
          <mxGeometry x="120" width="60" height="40" as="geometry">
            <mxRectangle width="60" height="40" as="alternateBounds" />
          </mxGeometry>
        </mxCell>
        <mxCell id="i8jER_SUOBb45JfwudOZ-70" value="" style="shape=table;startSize=0;container=1;collapsible=0;childLayout=tableLayout;" vertex="1" parent="1">
          <mxGeometry x="1060" y="150" width="180" height="120" as="geometry" />
        </mxCell>
        <mxCell id="i8jER_SUOBb45JfwudOZ-71" value="" style="shape=tableRow;horizontal=0;startSize=0;swimlaneHead=0;swimlaneBody=0;strokeColor=inherit;top=0;left=0;bottom=0;right=0;collapsible=0;dropTarget=0;fillColor=none;points=[[0,0.5],[1,0.5]];portConstraint=eastwest;" vertex="1" parent="i8jER_SUOBb45JfwudOZ-70">
          <mxGeometry width="180" height="40" as="geometry" />
        </mxCell>
        <mxCell id="i8jER_SUOBb45JfwudOZ-72" value="9" style="shape=partialRectangle;html=1;whiteSpace=wrap;connectable=0;strokeColor=inherit;overflow=hidden;fillColor=none;top=0;left=0;bottom=0;right=0;pointerEvents=1;fontSize=20;fontColor=#FF5B42;" vertex="1" parent="i8jER_SUOBb45JfwudOZ-71">
          <mxGeometry width="60" height="40" as="geometry">
            <mxRectangle width="60" height="40" as="alternateBounds" />
          </mxGeometry>
        </mxCell>
        <mxCell id="i8jER_SUOBb45JfwudOZ-73" value="" style="shape=partialRectangle;html=1;whiteSpace=wrap;connectable=0;strokeColor=inherit;overflow=hidden;fillColor=none;top=0;left=0;bottom=0;right=0;pointerEvents=1;fontSize=20;" vertex="1" parent="i8jER_SUOBb45JfwudOZ-71">
          <mxGeometry x="60" width="60" height="40" as="geometry">
            <mxRectangle width="60" height="40" as="alternateBounds" />
          </mxGeometry>
        </mxCell>
        <mxCell id="i8jER_SUOBb45JfwudOZ-74" value="10" style="shape=partialRectangle;html=1;whiteSpace=wrap;connectable=0;strokeColor=inherit;overflow=hidden;fillColor=none;top=0;left=0;bottom=0;right=0;pointerEvents=1;fontSize=20;fontColor=#67AB9F;" vertex="1" parent="i8jER_SUOBb45JfwudOZ-71">
          <mxGeometry x="120" width="60" height="40" as="geometry">
            <mxRectangle width="60" height="40" as="alternateBounds" />
          </mxGeometry>
        </mxCell>
        <mxCell id="i8jER_SUOBb45JfwudOZ-75" value="" style="shape=tableRow;horizontal=0;startSize=0;swimlaneHead=0;swimlaneBody=0;strokeColor=inherit;top=0;left=0;bottom=0;right=0;collapsible=0;dropTarget=0;fillColor=none;points=[[0,0.5],[1,0.5]];portConstraint=eastwest;" vertex="1" parent="i8jER_SUOBb45JfwudOZ-70">
          <mxGeometry y="40" width="180" height="40" as="geometry" />
        </mxCell>
        <mxCell id="i8jER_SUOBb45JfwudOZ-76" value="" style="shape=partialRectangle;html=1;whiteSpace=wrap;connectable=0;strokeColor=inherit;overflow=hidden;fillColor=none;top=0;left=0;bottom=0;right=0;pointerEvents=1;fontSize=20;" vertex="1" parent="i8jER_SUOBb45JfwudOZ-75">
          <mxGeometry width="60" height="40" as="geometry">
            <mxRectangle width="60" height="40" as="alternateBounds" />
          </mxGeometry>
        </mxCell>
        <mxCell id="i8jER_SUOBb45JfwudOZ-77" value="E" style="shape=partialRectangle;html=1;whiteSpace=wrap;connectable=0;strokeColor=inherit;overflow=hidden;fillColor=none;top=0;left=0;bottom=0;right=0;pointerEvents=1;fontSize=20;" vertex="1" parent="i8jER_SUOBb45JfwudOZ-75">
          <mxGeometry x="60" width="60" height="40" as="geometry">
            <mxRectangle width="60" height="40" as="alternateBounds" />
          </mxGeometry>
        </mxCell>
        <mxCell id="i8jER_SUOBb45JfwudOZ-78" value="" style="shape=partialRectangle;html=1;whiteSpace=wrap;connectable=0;strokeColor=inherit;overflow=hidden;fillColor=none;top=0;left=0;bottom=0;right=0;pointerEvents=1;fontSize=20;" vertex="1" parent="i8jER_SUOBb45JfwudOZ-75">
          <mxGeometry x="120" width="60" height="40" as="geometry">
            <mxRectangle width="60" height="40" as="alternateBounds" />
          </mxGeometry>
        </mxCell>
        <mxCell id="i8jER_SUOBb45JfwudOZ-79" value="" style="shape=tableRow;horizontal=0;startSize=0;swimlaneHead=0;swimlaneBody=0;strokeColor=inherit;top=0;left=0;bottom=0;right=0;collapsible=0;dropTarget=0;fillColor=none;points=[[0,0.5],[1,0.5]];portConstraint=eastwest;" vertex="1" parent="i8jER_SUOBb45JfwudOZ-70">
          <mxGeometry y="80" width="180" height="40" as="geometry" />
        </mxCell>
        <mxCell id="i8jER_SUOBb45JfwudOZ-80" value="9" style="shape=partialRectangle;html=1;whiteSpace=wrap;connectable=0;strokeColor=inherit;overflow=hidden;fillColor=none;top=0;left=0;bottom=0;right=0;pointerEvents=1;fontSize=20;" vertex="1" parent="i8jER_SUOBb45JfwudOZ-79">
          <mxGeometry width="60" height="40" as="geometry">
            <mxRectangle width="60" height="40" as="alternateBounds" />
          </mxGeometry>
        </mxCell>
        <mxCell id="i8jER_SUOBb45JfwudOZ-81" value="1" style="shape=partialRectangle;html=1;whiteSpace=wrap;connectable=0;strokeColor=inherit;overflow=hidden;fillColor=none;top=0;left=0;bottom=0;right=0;pointerEvents=1;fontSize=20;" vertex="1" parent="i8jER_SUOBb45JfwudOZ-79">
          <mxGeometry x="60" width="60" height="40" as="geometry">
            <mxRectangle width="60" height="40" as="alternateBounds" />
          </mxGeometry>
        </mxCell>
        <mxCell id="i8jER_SUOBb45JfwudOZ-82" value="10" style="shape=partialRectangle;html=1;whiteSpace=wrap;connectable=0;strokeColor=inherit;overflow=hidden;fillColor=none;top=0;left=0;bottom=0;right=0;pointerEvents=1;fontSize=20;" vertex="1" parent="i8jER_SUOBb45JfwudOZ-79">
          <mxGeometry x="120" width="60" height="40" as="geometry">
            <mxRectangle width="60" height="40" as="alternateBounds" />
          </mxGeometry>
        </mxCell>
        <mxCell id="i8jER_SUOBb45JfwudOZ-91" style="edgeStyle=orthogonalEdgeStyle;rounded=0;orthogonalLoop=1;jettySize=auto;html=1;" edge="1" parent="1" source="i8jER_SUOBb45JfwudOZ-83" target="i8jER_SUOBb45JfwudOZ-36">
          <mxGeometry relative="1" as="geometry" />
        </mxCell>
        <mxCell id="i8jER_SUOBb45JfwudOZ-83" value="INICIO" style="rounded=0;whiteSpace=wrap;html=1;" vertex="1" parent="1">
          <mxGeometry x="30" y="170" width="120" height="60" as="geometry" />
        </mxCell>
        <mxCell id="i8jER_SUOBb45JfwudOZ-84" value="FIN" style="rounded=0;whiteSpace=wrap;html=1;" vertex="1" parent="1">
          <mxGeometry x="1440" y="180" width="120" height="60" as="geometry" />
        </mxCell>
        <mxCell id="i8jER_SUOBb45JfwudOZ-86" style="edgeStyle=orthogonalEdgeStyle;rounded=0;orthogonalLoop=1;jettySize=auto;html=1;entryX=0;entryY=0.5;entryDx=0;entryDy=0;" edge="1" parent="1" source="i8jER_SUOBb45JfwudOZ-40" target="i8jER_SUOBb45JfwudOZ-49">
          <mxGeometry relative="1" as="geometry">
            <Array as="points">
              <mxPoint x="350" y="310" />
            </Array>
          </mxGeometry>
        </mxCell>
        <mxCell id="i8jER_SUOBb45JfwudOZ-87" style="edgeStyle=orthogonalEdgeStyle;rounded=0;orthogonalLoop=1;jettySize=auto;html=1;entryX=0.556;entryY=1.25;entryDx=0;entryDy=0;entryPerimeter=0;" edge="1" parent="1" source="i8jER_SUOBb45JfwudOZ-49" target="i8jER_SUOBb45JfwudOZ-79">
          <mxGeometry relative="1" as="geometry">
            <Array as="points">
              <mxPoint x="1160" y="310" />
            </Array>
          </mxGeometry>
        </mxCell>
        <mxCell id="i8jER_SUOBb45JfwudOZ-88" style="edgeStyle=orthogonalEdgeStyle;rounded=0;orthogonalLoop=1;jettySize=auto;html=1;" edge="1" parent="1" source="i8jER_SUOBb45JfwudOZ-7" target="i8jER_SUOBb45JfwudOZ-62">
          <mxGeometry relative="1" as="geometry" />
        </mxCell>
        <mxCell id="i8jER_SUOBb45JfwudOZ-89" style="edgeStyle=orthogonalEdgeStyle;rounded=0;orthogonalLoop=1;jettySize=auto;html=1;" edge="1" parent="1" source="i8jER_SUOBb45JfwudOZ-62" target="i8jER_SUOBb45JfwudOZ-71">
          <mxGeometry relative="1" as="geometry">
            <Array as="points">
              <mxPoint x="1150" y="70" />
            </Array>
          </mxGeometry>
        </mxCell>
        <mxCell id="i8jER_SUOBb45JfwudOZ-90" style="edgeStyle=orthogonalEdgeStyle;rounded=0;orthogonalLoop=1;jettySize=auto;html=1;entryX=0;entryY=0.5;entryDx=0;entryDy=0;" edge="1" parent="1" source="i8jER_SUOBb45JfwudOZ-75" target="i8jER_SUOBb45JfwudOZ-84">
          <mxGeometry relative="1" as="geometry" />
        </mxCell>
        <mxCell id="i8jER_SUOBb45JfwudOZ-92" value="" style="shape=table;startSize=0;container=1;collapsible=0;childLayout=tableLayout;align=center;fontStyle=1;fontSize=27;" vertex="1" parent="1">
          <mxGeometry x="1210" y="340" width="540" height="190" as="geometry" />
        </mxCell>
        <mxCell id="i8jER_SUOBb45JfwudOZ-93" value="" style="shape=tableRow;horizontal=0;startSize=0;swimlaneHead=0;swimlaneBody=0;strokeColor=inherit;top=0;left=0;bottom=0;right=0;collapsible=0;dropTarget=0;fillColor=none;points=[[0,0.5],[1,0.5]];portConstraint=eastwest;" vertex="1" parent="i8jER_SUOBb45JfwudOZ-92">
          <mxGeometry width="540" height="63" as="geometry" />
        </mxCell>
        <mxCell id="i8jER_SUOBb45JfwudOZ-94" value="INICIO&lt;div style=&quot;font-size: 21px;&quot;&gt;TEMPRANO&lt;/div&gt;" style="shape=partialRectangle;html=1;whiteSpace=wrap;connectable=0;strokeColor=inherit;overflow=hidden;fillColor=none;top=0;left=0;bottom=0;right=0;pointerEvents=1;fontSize=21;" vertex="1" parent="i8jER_SUOBb45JfwudOZ-93">
          <mxGeometry width="180" height="63" as="geometry">
            <mxRectangle width="180" height="63" as="alternateBounds" />
          </mxGeometry>
        </mxCell>
        <mxCell id="i8jER_SUOBb45JfwudOZ-95" value="" style="shape=partialRectangle;html=1;whiteSpace=wrap;connectable=0;strokeColor=inherit;overflow=hidden;fillColor=none;top=0;left=0;bottom=0;right=0;pointerEvents=1;" vertex="1" parent="i8jER_SUOBb45JfwudOZ-93">
          <mxGeometry x="180" width="180" height="63" as="geometry">
            <mxRectangle width="180" height="63" as="alternateBounds" />
          </mxGeometry>
        </mxCell>
        <mxCell id="i8jER_SUOBb45JfwudOZ-96" value="FINALIZACION&lt;div style=&quot;font-size: 21px;&quot;&gt;TEMPRANA&lt;/div&gt;" style="shape=partialRectangle;html=1;whiteSpace=wrap;connectable=0;strokeColor=inherit;overflow=hidden;fillColor=none;top=0;left=0;bottom=0;right=0;pointerEvents=1;fontSize=21;" vertex="1" parent="i8jER_SUOBb45JfwudOZ-93">
          <mxGeometry x="360" width="180" height="63" as="geometry">
            <mxRectangle width="180" height="63" as="alternateBounds" />
          </mxGeometry>
        </mxCell>
        <mxCell id="i8jER_SUOBb45JfwudOZ-97" value="" style="shape=tableRow;horizontal=0;startSize=0;swimlaneHead=0;swimlaneBody=0;strokeColor=inherit;top=0;left=0;bottom=0;right=0;collapsible=0;dropTarget=0;fillColor=none;points=[[0,0.5],[1,0.5]];portConstraint=eastwest;" vertex="1" parent="i8jER_SUOBb45JfwudOZ-92">
          <mxGeometry y="63" width="540" height="64" as="geometry" />
        </mxCell>
        <mxCell id="i8jER_SUOBb45JfwudOZ-98" value="" style="shape=partialRectangle;html=1;whiteSpace=wrap;connectable=0;strokeColor=inherit;overflow=hidden;fillColor=none;top=0;left=0;bottom=0;right=0;pointerEvents=1;" vertex="1" parent="i8jER_SUOBb45JfwudOZ-97">
          <mxGeometry width="180" height="64" as="geometry">
            <mxRectangle width="180" height="64" as="alternateBounds" />
          </mxGeometry>
        </mxCell>
        <mxCell id="i8jER_SUOBb45JfwudOZ-99" value="&lt;span style=&quot;font-size: 20px;&quot;&gt;ACTIVIDAD&lt;/span&gt;" style="shape=partialRectangle;html=1;whiteSpace=wrap;connectable=0;strokeColor=inherit;overflow=hidden;fillColor=none;top=0;left=0;bottom=0;right=0;pointerEvents=1;" vertex="1" parent="i8jER_SUOBb45JfwudOZ-97">
          <mxGeometry x="180" width="180" height="64" as="geometry">
            <mxRectangle width="180" height="64" as="alternateBounds" />
          </mxGeometry>
        </mxCell>
        <mxCell id="i8jER_SUOBb45JfwudOZ-100" value="" style="shape=partialRectangle;html=1;whiteSpace=wrap;connectable=0;strokeColor=inherit;overflow=hidden;fillColor=none;top=0;left=0;bottom=0;right=0;pointerEvents=1;" vertex="1" parent="i8jER_SUOBb45JfwudOZ-97">
          <mxGeometry x="360" width="180" height="64" as="geometry">
            <mxRectangle width="180" height="64" as="alternateBounds" />
          </mxGeometry>
        </mxCell>
        <mxCell id="i8jER_SUOBb45JfwudOZ-101" value="" style="shape=tableRow;horizontal=0;startSize=0;swimlaneHead=0;swimlaneBody=0;strokeColor=inherit;top=0;left=0;bottom=0;right=0;collapsible=0;dropTarget=0;fillColor=none;points=[[0,0.5],[1,0.5]];portConstraint=eastwest;" vertex="1" parent="i8jER_SUOBb45JfwudOZ-92">
          <mxGeometry y="127" width="540" height="63" as="geometry" />
        </mxCell>
        <mxCell id="i8jER_SUOBb45JfwudOZ-102" value="INICIO&lt;div style=&quot;font-size: 21px;&quot;&gt;TARDIO&lt;/div&gt;" style="shape=partialRectangle;html=1;whiteSpace=wrap;connectable=0;strokeColor=inherit;overflow=hidden;fillColor=none;top=0;left=0;bottom=0;right=0;pointerEvents=1;fontSize=21;" vertex="1" parent="i8jER_SUOBb45JfwudOZ-101">
          <mxGeometry width="180" height="63" as="geometry">
            <mxRectangle width="180" height="63" as="alternateBounds" />
          </mxGeometry>
        </mxCell>
        <mxCell id="i8jER_SUOBb45JfwudOZ-103" value="DURACION" style="shape=partialRectangle;html=1;whiteSpace=wrap;connectable=0;strokeColor=inherit;overflow=hidden;fillColor=none;top=0;left=0;bottom=0;right=0;pointerEvents=1;fontSize=20;" vertex="1" parent="i8jER_SUOBb45JfwudOZ-101">
          <mxGeometry x="180" width="180" height="63" as="geometry">
            <mxRectangle width="180" height="63" as="alternateBounds" />
          </mxGeometry>
        </mxCell>
        <mxCell id="i8jER_SUOBb45JfwudOZ-104" value="FINALIZACION&lt;div style=&quot;font-size: 21px;&quot;&gt;TARDIA&lt;/div&gt;" style="shape=partialRectangle;html=1;whiteSpace=wrap;connectable=0;strokeColor=inherit;overflow=hidden;fillColor=none;top=0;left=0;bottom=0;right=0;pointerEvents=1;fontSize=21;" vertex="1" parent="i8jER_SUOBb45JfwudOZ-101">
          <mxGeometry x="360" width="180" height="63" as="geometry">
            <mxRectangle width="180" height="63" as="alternateBounds" />
          </mxGeometry>
        </mxCell>
        <mxCell id="i8jER_SUOBb45JfwudOZ-105" value="&lt;div&gt;ACTIVIDADES&amp;nbsp;&lt;/div&gt;&lt;div&gt;&lt;span style=&quot;background-color: initial;&quot;&gt;A:Holgura 0&lt;/span&gt;&lt;/div&gt;&lt;div&gt;B:Holgura 0&lt;/div&gt;&lt;div&gt;C:Holgura 5 no critica&lt;/div&gt;&lt;div&gt;D: Holgura 0&lt;/div&gt;&lt;div&gt;E Holgura 0&lt;br&gt;&lt;div style=&quot;font-size: 24px;&quot;&gt;&lt;div&gt;&lt;div&gt;&lt;br&gt;&lt;/div&gt;&lt;/div&gt;&lt;/div&gt;&lt;/div&gt;" style="rounded=0;whiteSpace=wrap;html=1;fontSize=24;verticalAlign=bottom;" vertex="1" parent="1">
          <mxGeometry x="30" y="390" width="500" height="220" as="geometry" />
        </mxCell>
        <mxCell id="i8jER_SUOBb45JfwudOZ-106" value="DURACION TOTAL DEL PROYECTO 10 DIAS" style="rounded=0;whiteSpace=wrap;html=1;fontSize=27;" vertex="1" parent="1">
          <mxGeometry x="740" y="380" width="410" height="130" as="geometry" />
        </mxCell>
        <mxCell id="i8jER_SUOBb45JfwudOZ-107" value="CAMINOS&lt;div style=&quot;font-size: 21px;&quot;&gt;A - B - D - E 10 DIAS CRITICO&lt;/div&gt;&lt;div style=&quot;font-size: 21px;&quot;&gt;A - C - E :5 DIAS&lt;/div&gt;" style="rounded=0;whiteSpace=wrap;html=1;fontSize=21;" vertex="1" parent="1">
          <mxGeometry x="750" y="530" width="400" height="120" as="geometry" />
        </mxCell>
      </root>
    </mxGraphModel>
  </diagram>
</mxfile>
